<?xml version="1.0" encoding="UTF-8"?>
<svg version="1.1" xmlns="http://www.w3.org/2000/svg" width="500" height="500">
<path d="M0 0 C165 0 330 0 500 0 C500 165 500 330 500 500 C335 500 170 500 0 500 C0 335 0 170 0 0 Z " fill="#FEFEFE" transform="translate(0,0)"/>
<path d="M0 0 C80.19 0 160.38 0 243 0 C243 20.79 243 41.58 243 63 C187.89 63 132.78 63 76 63 C76 96.66 76 130.32 76 165 C125.83 165 175.66 165 227 165 C227 185.46 227 205.92 227 227 C177.17 227 127.34 227 76 227 C76 278.48 76 329.96 76 383 C50.92 383 25.84 383 0 383 C0 256.61 0 130.22 0 0 Z " fill="#000000" transform="translate(145,74)"/>
</svg>
